<svg width="18" height="21" viewBox="0 0 18 21" fill="none" xmlns="http://www.w3.org/2000/svg">
<path fill-rule="evenodd" clip-rule="evenodd" d="M8.4641 0.0218849C7.08691 0.173049 5.97168 0.699277 5.01208 1.65073C4.03215 2.62238 3.51479 3.86509 3.51285 5.25216C3.51212 5.76373 3.54977 6.0757 3.66322 6.49791C3.93545 7.51135 4.38589 8.26678 5.13849 8.9721C5.9321 9.71588 6.8141 10.1639 7.93902 10.3947C8.4934 10.5084 9.5066 10.5084 10.061 10.3947C11.1859 10.1639 12.0679 9.71588 12.8615 8.9721C13.6141 8.26678 14.0645 7.51135 14.3368 6.49791C14.4502 6.0757 14.4879 5.76373 14.4871 5.25216C14.4859 4.39771 14.3172 3.68992 13.9379 2.94778C13.2708 1.64249 12.0019 0.616418 10.5628 0.218597C9.91083 0.0383241 9.04954 -0.042371 8.4641 0.0218849ZM5.06707 12.4692C3.81735 12.6689 2.70969 13.2059 1.81467 14.046C1.02194 14.7901 0.512927 15.6153 0.20561 16.6546C0.0227562 17.2729 0 17.5719 0 19.3553V21H9H18V19.3553C18 17.2802 17.9596 16.9719 17.5587 15.991C16.8961 14.3696 15.3413 13.0568 13.5352 12.5936C12.8375 12.4147 12.8092 12.4136 8.95467 12.4182C6.13687 12.4215 5.2965 12.4325 5.06707 12.4692Z" fill="black"/>
</svg>
