<svg width="22" height="22" viewBox="0 0 22 22" fill="none" xmlns="http://www.w3.org/2000/svg">
<path fill-rule="evenodd" clip-rule="evenodd" d="M0 1.65201V3.30403H1.25385H2.50766L3.46822 9.6804C3.99651 13.1874 4.44536 16.1611 4.46564 16.2885L4.50255 16.5201H12.245H19.9874L20.0063 16.4295C20.0168 16.3796 20.4611 13.4468 20.9937 9.91209C21.5263 6.37738 21.9706 3.44457 21.981 3.39469L22 3.30403H13.7606H5.52125L5.50122 3.17308C5.49022 3.10107 5.40735 2.42564 5.31701 1.67216C5.22668 0.918681 5.14307 0.234223 5.13116 0.151099L5.10952 0H2.55476H0V1.65201ZM6.03946 17.666C5.69132 17.759 5.37216 17.9634 5.09706 18.2696C4.79771 18.6027 4.66692 18.8529 4.56701 19.2836C4.4758 19.6769 4.4758 19.9311 4.5669 20.324C4.66652 20.7534 4.83345 21.078 5.10806 21.3764C5.50323 21.8057 5.93827 22 6.50457 22C7.07946 22 7.52707 21.7963 7.91479 21.3581C8.19222 21.0446 8.3442 20.7466 8.44224 20.324C8.53334 19.9311 8.53334 19.6769 8.44213 19.2836C8.3423 18.8532 8.21162 18.603 7.91208 18.2689C7.41521 17.7145 6.70888 17.4871 6.03946 17.666ZM18.0541 17.652C17.9648 17.6713 17.7695 17.7511 17.6203 17.8292C17.2736 18.0108 16.8745 18.4395 16.7086 18.8085C16.2461 19.8373 16.5392 21.0234 17.4141 21.664C17.7267 21.8928 17.9525 21.9689 18.3809 21.9898C18.8672 22.0135 19.1377 21.9418 19.5237 21.6869C19.9909 21.3784 20.2876 20.9299 20.4297 20.3175C20.5193 19.931 20.5189 19.6753 20.4281 19.2836C20.3282 18.8532 20.1976 18.603 19.898 18.2689C19.6177 17.9561 19.2582 17.7341 18.8998 17.6523C18.6765 17.6013 18.2892 17.6012 18.0541 17.652Z" fill="black"/>
</svg>
