<svg width="30" height="20" viewBox="0 0 30 20" fill="none" xmlns="http://www.w3.org/2000/svg">
<path d="M25.514 13.6982L25.2784 14.0409L25.5725 14.335L29.2929 18.0556L28.0556 19.2929L24.3351 15.5723L24.041 15.2782L23.6983 15.5139C22.2879 16.4835 20.6256 17.0927 18.7963 17.0927C14.2576 17.0927 10.5 13.335 10.5 8.79633C10.5 4.25765 14.2576 0.5 18.7963 0.5C23.335 0.5 27.0926 4.25765 27.0926 8.79633C27.0926 10.6257 26.4836 12.2879 25.514 13.6982ZM18.7963 2.37038C15.1868 2.37038 12.2778 5.27943 12.2778 8.88889C12.2778 12.4984 15.1868 15.4074 18.7963 15.4074C22.4057 15.4074 25.3148 12.4984 25.3148 8.88889C25.3148 5.27942 22.4057 2.37038 18.7963 2.37038Z" fill="black" stroke="black"/>
<line y1="2.54547" x2="9.09091" y2="2.54547" stroke="black" stroke-width="4"/>
<line y1="8.90912" x2="6.36364" y2="8.90912" stroke="black" stroke-width="4"/>
<line y1="15.2727" x2="9.09091" y2="15.2727" stroke="black" stroke-width="4"/>
</svg>
