<svg width="20" height="25" viewBox="0 0 20 25" fill="none" xmlns="http://www.w3.org/2000/svg">
<rect x="-0.166574" y="-0.53473" width="5.4183" height="13.1835" transform="matrix(-0.889957 -0.456044 0.473522 -0.880782 6.72257 23.8335)" fill="white" stroke="black" stroke-width="0.8"/>
<rect x="0.16775" y="-0.534381" width="5.41857" height="13.2764" transform="matrix(0.89094 -0.454121 -0.471566 -0.881831 13.0114 24.0707)" fill="white" stroke="black" stroke-width="0.8"/>
<path d="M10 0.126986L10.1849 0.363231C10.1848 0.363309 10.1847 0.363387 10.1846 0.363465L10.1849 0.363232L10 0.126986ZM10 0.126986L9.8151 0.363231C9.8152 0.363309 9.8153 0.363387 9.8154 0.363465L9.8151 0.363232L10 0.126986ZM15.3188 3.5995L15.3188 3.59951C15.3787 3.73332 15.4943 3.83413 15.635 3.87527L17.8072 4.51019L17.6457 6.70929C17.6347 6.8583 17.691 7.0044 17.7991 7.10758L19.4135 8.64886L18.225 10.5206C18.1446 10.6473 18.1253 10.8035 18.1726 10.946L18.8677 13.0411L16.9187 14.1625C16.7903 14.2364 16.7013 14.3634 16.6756 14.5093L17.0696 14.5786L16.6756 14.5093L16.2927 16.6865L14.0231 16.7957C13.8781 16.8027 13.7432 16.8723 13.6536 16.9866L12.2721 18.7484L10.2062 17.8134C10.0751 17.7541 9.92488 17.7541 9.79384 17.8134L7.7279 18.7484L6.34636 16.9866L6.0316 17.2334L6.34636 16.9866C6.25677 16.8723 6.12195 16.8027 5.97694 16.7957L3.70734 16.6865L3.32439 14.5093C3.29873 14.3634 3.2097 14.2364 3.08131 14.1625L2.88182 14.5092L3.08131 14.1625L1.13229 13.0411L1.82741 10.946C1.87469 10.8035 1.85543 10.6473 1.77495 10.5206L1.43727 10.735L1.77495 10.5206L0.586524 8.64886L2.20094 7.10757L2.20094 7.10757C2.30901 7.0044 2.36527 6.8583 2.35433 6.70929L2.19278 4.51019L4.36501 3.87527C4.50572 3.83414 4.6213 3.73332 4.68116 3.5995L5.58876 1.57035L7.82255 1.99527C7.96421 2.02221 8.1106 1.98669 8.22416 1.89782L10 0.507945L11.7758 1.89782C11.8894 1.98669 12.0358 2.02222 12.1774 1.99527L14.4112 1.57035L15.3188 3.5995ZM19.5454 8.44105L19.5449 8.44182C19.5451 8.44156 19.5453 8.4413 19.5454 8.44104L19.7987 8.60186L19.5454 8.44105ZM12.1268 18.9337C12.127 18.9335 12.1271 18.9333 12.1273 18.9331L12.1268 18.9337ZM3.74888 16.9227L3.74881 16.9223L3.74888 16.9227Z" fill="white" stroke="black" stroke-width="0.8"/>
<path d="M15.85 9.763C15.85 12.9031 13.24 15.4649 10 15.4649C6.76004 15.4649 4.15 12.9031 4.15 9.763C4.15 6.62294 6.76004 4.06113 10 4.06113C13.24 4.06113 15.85 6.62294 15.85 9.763Z" fill="white" stroke="black" stroke-width="0.8"/>
</svg>
