<svg width="24" height="22" viewBox="0 0 24 22" fill="none" xmlns="http://www.w3.org/2000/svg">
<path d="M16.4872 3.74667C19.0734 3.74667 20.6251 5.71222 20.6251 8.09156C20.6251 9.33295 20.0044 10.4709 19.2803 11.2985C18.0389 12.5399 12.3492 17.1951 12.3492 17.1951C12.3492 17.1951 6.65945 12.5399 5.41806 11.2985C4.59046 10.4709 4.07321 9.33295 4.07321 8.09156C4.07321 5.71222 5.62496 3.74667 8.21119 3.74667C9.96984 3.74667 11.625 5.40187 12.3492 6.85016C13.0733 5.40187 14.7285 3.74667 16.4872 3.74667ZM16.4872 0.643188C14.9354 0.643188 13.4871 1.26389 12.3492 2.09148C11.2112 1.16044 9.76294 0.643188 8.21119 0.643188C4.07321 0.643188 0.969727 3.85012 0.969727 8.09156C0.969727 10.0571 1.79732 11.9192 3.24562 13.4709C4.69391 15.0227 12.3492 21.2296 12.3492 21.2296C12.3492 21.2296 20.0044 15.0227 21.4527 13.4709C22.901 11.9192 23.7286 10.0571 23.7286 8.09156C23.7286 3.85012 20.6251 0.643188 16.4872 0.643188Z" fill="white"/>
</svg>
