<svg width="37" height="37" viewBox="0 0 37 37" fill="none" xmlns="http://www.w3.org/2000/svg">
<path d="M12.0689 16.595C14.5685 16.595 16.5948 14.5687 16.5948 12.0691C16.5948 9.56954 14.5685 7.54321 12.0689 7.54321C9.56929 7.54321 7.54297 9.56954 7.54297 12.0691C7.54297 14.5687 9.56929 16.595 12.0689 16.595Z" stroke="black" stroke-width="3.10349"/>
<path d="M16.5947 12.0692H30.1725" stroke="black" stroke-width="3.10349"/>
<path d="M24.1386 19.6123C21.639 19.6123 19.6127 21.6386 19.6127 24.1382C19.6127 26.6378 21.639 28.6641 24.1386 28.6641C26.6382 28.6641 28.6646 26.6378 28.6646 24.1382C28.6646 21.6386 26.6382 19.6123 24.1386 19.6123Z" stroke="black" stroke-width="3.10349"/>
<path d="M19.6124 24.1382H6.03467" stroke="black" stroke-width="3.10349"/>
</svg>
