<svg width="26" height="25" viewBox="0 0 26 25" fill="none" xmlns="http://www.w3.org/2000/svg">
<g clip-path="url(#clip0_474_3195)">
<path d="M25.8025 12.5973C25.8025 11.7284 25.7336 10.8548 25.5867 10H13.8025V14.9221H20.5508C20.2707 16.5096 19.12 18.1076 17.8025 19L18.0534 22L21.8025 22C24.1667 19.7738 25.8025 16.4861 25.8025 12.5973Z" fill="#4285F4"/>
<path d="M13.498 25C16.8769 25 19.7264 23.9045 21.8025 22.0136L17.8025 19C16.6793 19.7545 15.192 20.1045 13.5026 20.1045C10.2341 20.1045 7.29682 17.9273 6.30249 15H2.30249V18.1864C4.42926 22.3636 8.76106 25 13.498 25Z" fill="#34A853"/>
<path d="M6.3026 15C5.72949 13.4787 5.97949 11.5213 6.5526 10L6.8026 7L2.30258 6.75C0.362071 10.2111 0.317468 14.5389 2.25798 18L6.3026 15Z" fill="#FBBC04"/>
<path d="M13.7391 4.89366C15.5637 4.8664 17.3272 5.52968 18.6486 6.7472L22.3025 3.21729C19.9888 1.11841 16.9181 -0.0355109 13.7391 0.000833182C8.90019 0.000833182 4.47507 2.57043 2.30249 6.75L6.55361 10C7.56466 7.06976 10.4003 4.89366 13.7391 4.89366Z" fill="#EA4335"/>
</g>
<defs>
<clipPath id="clip0_474_3195">
<rect width="25" height="25" fill="white" transform="translate(0.80249)"/>
</clipPath>
</defs>
</svg>
