<svg width="20" height="20" viewBox="0 0 20 20" fill="none" xmlns="http://www.w3.org/2000/svg">
<path fill-rule="evenodd" clip-rule="evenodd" d="M10 5.83302C9.33301 5.83302 8.66601 5.99902 8.08301 6.33302L4.50001 2.74902C6.00001 1.58302 7.91701 0.916016 10 0.916016C12.083 0.916016 14 1.58302 15.5 2.74902L11.917 6.33302C11.3322 6.00289 10.6716 5.83058 10 5.83302ZM13.666 11.916C14 11.333 14.166 10.666 14.166 9.99902C14.166 9.33302 14 8.66602 13.666 8.08302L17.25 4.49902C18.416 5.99902 19.083 7.91602 19.083 9.99902C19.083 12.083 18.417 13.999 17.25 15.499L13.666 11.916ZM11.916 13.666C11.333 13.999 10.666 14.166 10 14.166C9.32846 14.1684 8.66784 13.9961 8.08301 13.666L4.50001 17.25C6.00001 18.417 7.91701 19.084 10 19.084C12.083 19.084 14 18.417 15.5 17.25L11.917 13.667L11.916 13.666ZM0.834008 10C0.834008 7.91702 1.50101 6.00002 2.66801 4.50002L6.25101 8.08402C5.91801 8.66702 5.75101 9.33401 5.75101 10C5.75101 10.667 5.91801 11.334 6.25101 11.917L2.66701 15.5C1.50001 14 0.833008 12.083 0.833008 10H0.834008Z" fill="black"/>
</svg>
