<svg width="24" height="24" viewBox="0 0 24 24" fill="none" xmlns="http://www.w3.org/2000/svg">
<path d="M12 0C5.36949 0 0 5.36949 0 12C0 14.7559 0.935593 17.3085 2.50169 19.3322V19.5153C2.54237 19.5051 2.57288 19.4949 2.61356 19.4746C4.81017 22.2305 8.19661 24 12 24C15.8644 24 19.2915 22.1797 21.4881 19.3525H21.4983V19.3322C23.0644 17.2983 24 14.7559 24 12C24 5.36949 18.6305 0 12 0ZM22.9932 11.5017H16.9932C16.9627 10.0983 16.7898 8.68475 16.4847 7.24068C18.2034 7.02712 19.8407 6.68136 21.3661 6.22373C22.322 7.75932 22.9017 9.56949 22.9932 11.5017ZM8.00339 11.5017C8.0339 10.1085 8.20678 8.71525 8.52203 7.30169C9.7322 7.4339 10.9729 7.50508 12.2441 7.50508C13.3424 7.50508 14.4305 7.45424 15.478 7.35254C15.783 8.75593 15.9559 10.1288 15.9864 11.5017H8.00339ZM15.9966 12.4983C15.9559 14.0339 15.7525 15.5797 15.3763 17.1458C14.3593 17.0542 13.3119 17.0034 12.2542 17.0034C11.0237 17.0034 9.81356 17.0746 8.64407 17.1966C8.25763 15.6102 8.04407 14.0644 8.01356 12.5085L15.9966 12.4983ZM20.7763 5.35932C19.3627 5.75593 17.8373 6.06102 16.2508 6.25424C15.8237 4.62712 15.2136 2.95932 14.4 1.26102C16.9831 1.84068 19.2305 3.32542 20.7763 5.35932ZM12 0.99661C12.4271 0.99661 12.8542 1.01695 13.2712 1.0678C14.1356 2.88814 14.7864 4.63729 15.2441 6.35593C14.2678 6.44746 13.261 6.48814 12.2441 6.48814C11.0542 6.48814 9.88475 6.42712 8.75593 6.30508C9.21356 4.59661 9.86441 2.85763 10.7186 1.05763C11.1458 1.02712 11.5729 0.99661 12 0.99661ZM9.6 1.26102C8.79661 2.93898 8.19661 4.58644 7.76949 6.19322C6.20339 5.97966 4.70847 5.65424 3.32542 5.23729C4.86102 3.26441 7.0678 1.83051 9.6 1.26102ZM2.72542 6.09153C4.23051 6.56949 5.83729 6.93559 7.53559 7.16949C7.21017 8.6339 7.04746 10.078 7.00678 11.5017H1.00678C1.09831 9.51864 1.71864 7.6678 2.72542 6.09153ZM3 18.3254C1.83051 16.6576 1.10847 14.6644 1.00678 12.4983H7.00678C7.04746 14.1356 7.26102 15.7322 7.63729 17.3085C6.01017 17.5424 4.45424 17.878 3 18.3254ZM3.65085 19.1593C4.98305 18.7729 6.40678 18.478 7.90169 18.2847C8.32881 19.7898 8.8983 21.2746 9.6 22.739C7.24068 22.2102 5.1661 20.9288 3.65085 19.1593ZM10.7288 22.9322C9.95593 21.3051 9.34576 19.7288 8.90847 18.1729C9.99661 18.061 11.1153 18.0102 12.2644 18.0102C13.2407 18.0102 14.1966 18.0508 15.1322 18.1322C14.6847 19.6983 14.0746 21.2847 13.2915 22.9322C12.8746 22.9831 12.4475 23.0034 12.0203 23.0034C11.5932 23.0034 11.1458 22.9729 10.7288 22.9322ZM14.4 22.739C15.1119 21.2542 15.6915 19.7492 16.1186 18.2237C17.6339 18.3966 19.0881 18.6814 20.4508 19.0475C18.9254 20.878 16.8102 22.2 14.4 22.739ZM21.0814 18.2034C19.6068 17.7763 18.0203 17.4508 16.3729 17.2475C16.739 15.6915 16.9525 14.1051 16.9932 12.4983H22.9932C22.8915 14.6136 22.2 16.5661 21.0814 18.2034Z" fill="black"/>
</svg>
