<svg xmlns="http://www.w3.org/2000/svg" fill-rule="evenodd" stroke-linejoin="round" stroke-miterlimit="2" clip-rule="evenodd" viewBox="0 0 32 32" id="hide"><path d="m20.849 9.737 2.444-2.444a1 1 0 0 1 1.414 1.414l-1.831 1.832c3.97 1.896 5.952 4.874 5.952 4.874l.003.005a1 1 0 0 1 .002 1.109l-.003.005S24.56 23 16 23c-1.808 0-3.424-.286-4.849-.737l-2.444 2.444a1 1 0 0 1-1.414-1.414l1.831-1.832c-3.97-1.896-5.952-4.874-5.952-4.874l-.003-.005a1 1 0 0 1-.002-1.109l.003-.005S7.44 9 16 9c1.808 0 3.424.286 4.849.737Zm-.678 3.506-1.464 1.464a3.001 3.001 0 0 1-4 4l-1.464 1.464a5.002 5.002 0 0 0 6.928-6.928Zm-1.414-1.414a5.002 5.002 0 0 0-6.928 6.928l1.464-1.464a3.001 3.001 0 0 1 4-4l1.464-1.464Z"></path></svg>